# xmcd CD database file
#
# Track frame offsets:
#	150
#	24377
#	39052
#	56685
#	77095
#	96765
#	122235
#	142327
#	166442
#
# Disc length: 2469 seconds
#
# Revision: 0
# Processed by: cddbd v1.5.2PL0 Copyright (c) Steve Scherf et al.
# Submitted via: CDex 1.70beta2
#
DISCID=7309a309
DTITLE=Milt Jackson - Used To Be Jackson Vol.1
DYEAR=1984
DGENRE=Jazz
TTITLE0=Bag's Groove
TTITLE1=Straight No Chaser
TTITLE2=Blue Monk
TTITLE3=Round Midnight
TTITLE4=In Walked Bud
TTITLE5=Used To Be Jackson
TTITLE6=Someone I Love
TTITLE7=Nature Boy
TTITLE8=Our Delight
EXTD=YEAR: 1984
EXTT0=
EXTT1=
EXTT2=
EXTT3=
EXTT4=
EXTT5=
EXTT6=
EXTT7=
EXTT8=
PLAYORDER=
